<svg width="79" height="12" viewBox="0 0 79 12" fill="none" xmlns="http://www.w3.org/2000/svg">
<path d="M2.29498 11.9999L3.68997 7.43994L0 4.79996H4.55996L5.99995 0L7.43994 4.79996H11.9999L8.30993 7.43994L9.70492 11.9999L5.99995 9.17993L2.29498 11.9999Z" fill="#FBBC04"/>
<path d="M18.9108 12L20.3057 7.44006L16.6158 4.80008H21.1757L22.6157 0.000122622L24.0557 4.80008H28.6157L24.9257 7.44006L26.3207 12L22.6157 9.18005L18.9108 12Z" fill="#FBBC04"/>
<path d="M35.5267 12L36.9216 7.44006L33.2317 4.80008H37.7916L39.2316 0.000122622L40.6716 4.80008H45.2316L41.5416 7.44006L42.9366 12L39.2316 9.18005L35.5267 12Z" fill="#FBBC04"/>
<path d="M52.1405 12L53.5355 7.44006L49.8455 4.80008H54.4055L55.8455 0.000122622L57.2855 4.80008H61.8454L58.1555 7.44006L59.5505 12L55.8455 9.18005L52.1405 12Z" fill="#FBBC04"/>
<path d="M68.7564 12L70.1514 7.44006L66.4615 4.80008H71.0214L72.4614 0.000122622L73.9014 4.80008H78.4614L74.7714 7.44006L76.1664 12L72.4614 9.18005L68.7564 12Z" fill="#FBBC04"/>
</svg>
