<svg width="13" height="13" viewBox="0 0 13 13" fill="none" xmlns="http://www.w3.org/2000/svg">
<mask id="mask0_1_123" style="mask-type:alpha" maskUnits="userSpaceOnUse" x="-4" y="-4" width="21" height="21">
<rect x="-3.25008" y="-3.25008" width="19.5" height="19.5" fill="#D9D9D9"/>
</mask>
<g mask="url(#mask0_1_123)">
<path d="M2.84375 5.68751C2.05834 5.68751 1.38802 5.4099 0.832813 4.85469C0.277604 4.29948 0 3.62917 0 2.84375C0 2.05834 0.277604 1.38802 0.832813 0.832813C1.38802 0.277604 2.05834 0 2.84375 0C3.62917 0 4.29948 0.277604 4.85469 0.832813C5.4099 1.38802 5.68751 2.05834 5.68751 2.84375C5.68751 3.62917 5.4099 4.29948 4.85469 4.85469C4.29948 5.4099 3.62917 5.68751 2.84375 5.68751ZM2.84375 4.0625C3.18229 4.0625 3.47006 3.94401 3.70703 3.70703C3.94401 3.47006 4.0625 3.18229 4.0625 2.84375C4.0625 2.50521 3.94401 2.21745 3.70703 1.98047C3.47006 1.74349 3.18229 1.625 2.84375 1.625C2.50521 1.625 2.21745 1.74349 1.98047 1.98047C1.74349 2.21745 1.625 2.50521 1.625 2.84375C1.625 3.18229 1.74349 3.47006 1.98047 3.70703C2.21745 3.94401 2.50521 4.0625 2.84375 4.0625ZM10.1563 13C9.37084 13 8.70053 12.7224 8.14532 12.1672C7.59011 11.612 7.31251 10.9417 7.31251 10.1563C7.31251 9.37084 7.59011 8.70053 8.14532 8.14532C8.70053 7.59011 9.37084 7.31251 10.1563 7.31251C10.9417 7.31251 11.612 7.59011 12.1672 8.14532C12.7224 8.70053 13 9.37084 13 10.1563C13 10.9417 12.7224 11.612 12.1672 12.1672C11.612 12.7224 10.9417 13 10.1563 13ZM10.1563 11.375C10.4948 11.375 10.7826 11.2565 11.0195 11.0195C11.2565 10.7826 11.375 10.4948 11.375 10.1563C11.375 9.81772 11.2565 9.52996 11.0195 9.29298C10.7826 9.056 10.4948 8.93751 10.1563 8.93751C9.81772 8.93751 9.52996 9.056 9.29298 9.29298C9.056 9.52996 8.93751 9.81772 8.93751 10.1563C8.93751 10.4948 9.056 10.7826 9.29298 11.0195C9.52996 11.2565 9.81772 11.375 10.1563 11.375ZM0.568751 12.4313C0.419792 12.2823 0.345313 12.0927 0.345313 11.8625C0.345313 11.6323 0.419792 11.4427 0.568751 11.2938L11.2938 0.568751C11.4427 0.419792 11.6323 0.345313 11.8625 0.345313C12.0927 0.345313 12.2823 0.419792 12.4313 0.568751C12.5802 0.717709 12.6547 0.907293 12.6547 1.1375C12.6547 1.36771 12.5802 1.55729 12.4313 1.70625L1.70625 12.4313C1.55729 12.5802 1.36771 12.6547 1.1375 12.6547C0.907293 12.6547 0.717709 12.5802 0.568751 12.4313Z" fill="white"/>
</g>
</svg>
